<svg width="14" height="16" viewBox="0 0 14 16" fill="none" xmlns="http://www.w3.org/2000/svg">
<g clip-path="url(#clip0_1_286)">
<path d="M12.8334 14.6667V13.1852C12.8334 12.3994 12.5261 11.6457 11.9791 11.0901C11.4322 10.5344 10.6903 10.2222 9.91675 10.2222H4.08341C3.30987 10.2222 2.568 10.5344 2.02102 11.0901C1.47404 11.6457 1.16675 12.3994 1.16675 13.1852V14.6667" stroke="black" stroke-width="1.5" stroke-linecap="round" stroke-linejoin="round"/>
<path d="M6.99992 1.33331C6.22637 1.33331 5.4845 1.64548 4.93752 2.20114C4.39054 2.75681 4.08325 3.51045 4.08325 4.29628C4.08325 5.0821 4.39054 5.83574 4.93752 6.39141C5.4845 6.94707 6.22637 7.25924 6.99992 7.25924C7.77347 7.25924 8.51533 6.94707 9.06231 6.39141C9.60929 5.83574 9.91658 5.0821 9.91658 4.29628C9.91658 3.51045 9.60929 2.75681 9.06231 2.20114C8.51533 1.64548 7.77347 1.33331 6.99992 1.33331Z" stroke="black" stroke-width="1.5" stroke-linecap="round" stroke-linejoin="round"/>
</g>
<defs>
<clipPath id="clip0_1_286">
<rect width="14" height="16" fill="white"/>
</clipPath>
</defs>
</svg>
