<svg width="16" height="16" viewBox="0 0 16 16" fill="none" xmlns="http://www.w3.org/2000/svg">
<g clip-path="url(#clip0_1_218)">
<path d="M14.8571 7.61909C14.8597 8.6247 14.6248 9.61671 14.1714 10.5143C13.6338 11.5899 12.8074 12.4946 11.7847 13.1271C10.762 13.7596 9.58337 14.0948 8.38091 14.0953C7.37529 14.0979 6.38328 13.8629 5.48567 13.4096L1.14282 14.8572L2.59044 10.5143C2.13705 9.61671 1.9021 8.6247 1.90473 7.61909C1.90519 6.41662 2.24043 5.23802 2.87289 4.21532C3.50535 3.19262 4.41006 2.36619 5.48567 1.82862C6.38328 1.37523 7.37529 1.14028 8.38091 1.14291H8.76186C10.3499 1.23052 11.8499 1.90082 12.9745 3.02546C14.0992 4.15011 14.7695 5.65006 14.8571 7.23813V7.61909Z" fill="black" stroke="black" stroke-width="1.5" stroke-linecap="round" stroke-linejoin="round"/>
</g>
<defs>
<clipPath id="clip0_1_218">
<rect width="16" height="16" fill="white"/>
</clipPath>
</defs>
</svg>
