<svg width="16" height="16" viewBox="0 0 16 16" fill="none" xmlns="http://www.w3.org/2000/svg">
<g clip-path="url(#clip0_603_801)">
<path d="M14.046 11.1911C13.8164 10.9793 13.4801 10.9274 13.1919 10.8785C12.7919 10.8119 12.6401 10.7393 12.4068 10.5311C11.9105 10.0904 11.9105 9.45112 12.4068 9.01038L13.4586 8.07705C15.0705 6.6526 15.0705 4.31927 13.4586 2.89557C12.2727 1.85186 10.6786 1.33334 9.02232 1.33334C7.08898 1.33334 5.0675 2.03853 3.50898 3.42001C0.608984 5.98297 0.608984 10.1808 3.50898 12.743C4.94973 14.017 6.89417 14.6526 8.81787 14.6667H8.87713C10.8001 14.6667 12.6964 14.0445 14.0431 12.8474C14.5431 12.4059 14.4586 11.5763 14.046 11.1911Z" stroke="black" stroke-width="1.5"/>
</g>
<defs>
<clipPath id="clip0_603_801">
<rect width="16" height="16" fill="white"/>
</clipPath>
</defs>
</svg>
