<svg width="16" height="16" viewBox="0 0 16 16" fill="none" xmlns="http://www.w3.org/2000/svg">
<g clip-path="url(#clip0_272_186)">
<path d="M2.8147 6.51852V13.9259C2.8147 14.1224 2.89274 14.3108 3.03166 14.4497C3.17057 14.5886 3.35898 14.6667 3.55544 14.6667H12.4443C12.6408 14.6667 12.8292 14.5886 12.9681 14.4497C13.107 14.3108 13.1851 14.1224 13.1851 13.9259V6.51852" stroke="black" stroke-width="1.5" stroke-linecap="round" stroke-linejoin="round"/>
<path d="M5.77783 14.6667C5.97429 14.6667 6.1627 14.5886 6.30161 14.4497C6.44053 14.3108 6.51857 14.1224 6.51857 13.9259V10.963C6.51857 10.7665 6.59662 10.5781 6.73553 10.4392C6.87445 10.3003 7.06286 10.2222 7.25931 10.2222H8.7408C8.93725 10.2222 9.12566 10.3003 9.26458 10.4392C9.40349 10.5781 9.48154 10.7665 9.48154 10.963V13.9259C9.48154 14.1224 9.55958 14.3108 9.69849 14.4497C9.83741 14.5886 10.0258 14.6667 10.2223 14.6667" stroke="black" stroke-width="1.5" stroke-linecap="round" stroke-linejoin="round"/>
<path d="M1.33325 7.99999L2.81473 6.51851L7.99992 1.33333L13.1851 6.51851L14.6666 7.99999" stroke="black" stroke-width="1.5" stroke-linecap="round" stroke-linejoin="round"/>
</g>
<defs>
<clipPath id="clip0_272_186">
<rect width="16" height="16" fill="white"/>
</clipPath>
</defs>
</svg>
