<svg width="16" height="16" viewBox="0 0 16 16" fill="none" xmlns="http://www.w3.org/2000/svg">
<g clip-path="url(#clip0_516_1935)">
<path d="M13.1849 1.33333H2.81449C1.99629 1.33333 1.33301 1.99661 1.33301 2.81481V13.1852C1.33301 14.0034 1.99629 14.6667 2.81449 14.6667H13.1849C14.0031 14.6667 14.6663 14.0034 14.6663 13.1852V2.81481C14.6663 1.99661 14.0031 1.33333 13.1849 1.33333Z" stroke="white" stroke-width="1.5" stroke-linecap="round" stroke-linejoin="round"/>
<path d="M5.40701 4.2963C5.11232 4.2963 4.82971 4.41336 4.62134 4.62173C4.41296 4.83011 4.2959 5.11272 4.2959 5.40741C4.2959 5.70209 4.41296 5.98471 4.62134 6.19308C4.82971 6.40145 5.11232 6.51852 5.40701 6.51852C5.70169 6.51852 5.98431 6.40145 6.19268 6.19308C6.40106 5.98471 6.51812 5.70209 6.51812 5.40741C6.51812 5.11272 6.40106 4.83011 6.19268 4.62173C5.98431 4.41336 5.70169 4.2963 5.40701 4.2963Z" stroke="white" stroke-width="1.5" stroke-linecap="round" stroke-linejoin="round"/>
<path d="M14.6663 10.2222L10.9626 6.51852L2.81445 14.6667" stroke="white" stroke-width="1.5" stroke-linecap="round" stroke-linejoin="round"/>
</g>
<defs>
<clipPath id="clip0_516_1935">
<rect width="16" height="16" fill="white"/>
</clipPath>
</defs>
</svg>
