<svg width="22" height="16" viewBox="0 0 22 16" fill="none" xmlns="http://www.w3.org/2000/svg">
<path d="M1.8335 7.99999C1.8335 7.99999 5.16683 1.33333 11.0002 1.33333C16.8335 1.33333 20.1668 7.99999 20.1668 7.99999C20.1668 7.99999 16.8335 14.6667 11.0002 14.6667C5.16683 14.6667 1.8335 7.99999 1.8335 7.99999Z" stroke="black" stroke-width="1.5" stroke-linecap="round" stroke-linejoin="round"/>
<path d="M11 5.5C10.337 5.5 9.70107 5.76339 9.23223 6.23223C8.76339 6.70107 8.5 7.33696 8.5 8C8.5 8.66304 8.76339 9.29893 9.23223 9.76777C9.70107 10.2366 10.337 10.5 11 10.5C11.663 10.5 12.2989 10.2366 12.7678 9.76777C13.2366 9.29893 13.5 8.66304 13.5 8C13.5 7.33696 13.2366 6.70107 12.7678 6.23223C12.2989 5.76339 11.663 5.5 11 5.5Z" stroke="black" stroke-width="1.5" stroke-linecap="round" stroke-linejoin="round"/>
</svg>
