<svg width="16" height="16" viewBox="0 0 16 16" fill="none" xmlns="http://www.w3.org/2000/svg">
<g clip-path="url(#clip0_1_283)">
<path d="M6.06533 14.7692C4.9458 14.4215 3.93188 13.7781 3.12229 12.9017C3.38272 12.5803 3.54507 12.1854 3.58858 11.7675C3.63209 11.3496 3.55478 10.9276 3.36654 10.5557C3.1783 10.1837 2.88769 9.87867 2.53189 9.67951C2.17608 9.48034 1.77125 9.39613 1.36919 9.43765C1.13807 8.26458 1.19699 7.04965 1.54044 5.90674H1.56955C1.91464 5.90679 2.25405 5.81535 2.55575 5.64103C2.85744 5.46672 3.11145 5.21529 3.29381 4.91048C3.47617 4.60567 3.58085 4.25753 3.59797 3.89894C3.6151 3.54035 3.5441 3.18314 3.39169 2.86102C4.18517 2.09188 5.14493 1.53272 6.18988 1.23077C6.35976 1.57828 6.61877 1.8701 6.93821 2.07393C7.25766 2.27776 7.62509 2.38565 7.99983 2.38565C8.37457 2.38565 8.742 2.27776 9.06145 2.07393C9.3809 1.8701 9.6399 1.57828 9.80979 1.23077C10.8547 1.53252 11.8144 2.09143 12.608 2.86032C12.4543 3.18472 12.3832 3.54473 12.4016 3.90589C12.4199 4.26705 12.5271 4.61726 12.7128 4.92298C12.8985 5.22871 13.1566 5.47971 13.4622 5.65196C13.7679 5.82421 14.111 5.91193 14.4585 5.90674C14.8026 7.04975 14.862 8.26493 14.6311 9.43836C14.2291 9.39684 13.8243 9.48104 13.4685 9.68021C13.1126 9.87938 12.822 10.1844 12.6338 10.5564C12.4456 10.9283 12.3683 11.3503 12.4118 11.7682C12.4553 12.1861 12.6176 12.581 12.878 12.9024C12.0682 13.7786 11.054 14.4218 9.93433 14.7692C9.80305 14.3428 9.54494 13.9707 9.19725 13.7067C8.84956 13.4427 8.43026 13.3005 7.99983 13.3005C7.5694 13.3005 7.1501 13.4427 6.80241 13.7067C6.45472 13.9707 6.19662 14.3428 6.06533 14.7692Z" stroke="black" stroke-width="1.5" stroke-linejoin="round"/>
<path d="M7.99996 9.84618C8.2424 9.84618 8.48247 9.79843 8.70645 9.70565C8.93044 9.61287 9.13396 9.47688 9.30539 9.30545C9.47682 9.13402 9.61281 8.9305 9.70559 8.70652C9.79836 8.48253 9.84612 8.24246 9.84612 8.00002C9.84612 7.75758 9.79836 7.51752 9.70559 7.29353C9.61281 7.06955 9.47682 6.86603 9.30539 6.6946C9.13396 6.52316 8.93044 6.38718 8.70645 6.2944C8.48247 6.20162 8.2424 6.15387 7.99996 6.15387C7.51033 6.15387 7.04076 6.34837 6.69453 6.6946C6.34831 7.04082 6.15381 7.51039 6.15381 8.00002C6.15381 8.48965 6.34831 8.95923 6.69453 9.30545C7.04076 9.65167 7.51033 9.84618 7.99996 9.84618Z" stroke="black" stroke-width="1.5" stroke-linejoin="round"/>
</g>
<defs>
<clipPath id="clip0_1_283">
<rect width="16" height="16" fill="white"/>
</clipPath>
</defs>
</svg>
