<svg width="16" height="16" viewBox="0 0 16 16" fill="none" xmlns="http://www.w3.org/2000/svg">
<g clip-path="url(#clip0_276_204)">
<path fill-rule="evenodd" clip-rule="evenodd" d="M3.12229 12.9017C3.93188 13.7781 4.9458 14.4215 6.06533 14.7692C6.19662 14.3428 6.45472 13.9707 6.80241 13.7067C7.1501 13.4427 7.5694 13.3005 7.99983 13.3005C8.43026 13.3005 8.84956 13.4427 9.19725 13.7067C9.54494 13.9707 9.80305 14.3428 9.93433 14.7692C11.054 14.4218 12.0682 13.7786 12.878 12.9024C12.6176 12.581 12.4553 12.1861 12.4118 11.7682C12.3682 11.3503 12.4456 10.9283 12.6338 10.5564C12.822 10.1844 13.1126 9.87938 13.4685 9.68021C13.8243 9.48104 14.2291 9.39684 14.6311 9.43836C14.8619 8.26494 14.8026 7.04975 14.4585 5.90674C14.111 5.91193 13.7679 5.82421 13.4622 5.65196C13.1566 5.47971 12.8985 5.22871 12.7128 4.92298C12.5271 4.61726 12.4199 4.26705 12.4016 3.90589C12.3832 3.54473 12.4543 3.18472 12.608 2.86032C11.8144 2.09143 10.8547 1.53252 9.80979 1.23077C9.6399 1.57828 9.3809 1.8701 9.06145 2.07393C8.742 2.27776 8.37457 2.38565 7.99983 2.38565C7.62509 2.38565 7.25766 2.27776 6.93821 2.07393C6.61877 1.8701 6.35976 1.57828 6.18988 1.23077C5.14492 1.53272 4.18517 2.09188 3.39169 2.86102C3.5441 3.18314 3.6151 3.54035 3.59797 3.89894C3.58085 4.25753 3.47617 4.60567 3.29381 4.91048C3.11145 5.21529 2.85744 5.46672 2.55575 5.64103C2.25405 5.81535 1.91464 5.90679 1.56955 5.90674H1.54044C1.19699 7.04965 1.13807 8.26458 1.36919 9.43765C1.77125 9.39613 2.17608 9.48034 2.53189 9.67951C2.88769 9.87867 3.1783 10.1837 3.36654 10.5557C3.55478 10.9276 3.63209 11.3496 3.58858 11.7675C3.54507 12.1854 3.38272 12.5803 3.12229 12.9017ZM8.70645 9.70565C8.48247 9.79843 8.2424 9.84618 7.99996 9.84618C7.51033 9.84618 7.04076 9.65167 6.69453 9.30545C6.34831 8.95923 6.15381 8.48965 6.15381 8.00002C6.15381 7.51039 6.34831 7.04082 6.69453 6.6946C7.04076 6.34837 7.51033 6.15387 7.99996 6.15387C8.2424 6.15387 8.48247 6.20162 8.70645 6.2944C8.93044 6.38718 9.13396 6.52316 9.30539 6.6946C9.47682 6.86603 9.61281 7.06955 9.70559 7.29353C9.79836 7.51752 9.84612 7.75758 9.84612 8.00002C9.84612 8.24246 9.79836 8.48253 9.70559 8.70652C9.61281 8.9305 9.47682 9.13402 9.30539 9.30545C9.13396 9.47688 8.93044 9.61287 8.70645 9.70565Z" fill="#FE6730"/>
<path d="M6.06533 14.7692L5.84286 15.4855C6.03313 15.5446 6.2391 15.5255 6.41532 15.4326C6.59154 15.3396 6.72352 15.1803 6.78214 14.9899L6.06533 14.7692ZM3.12229 12.9017L2.53958 12.4295C2.30498 12.719 2.31852 13.1369 2.57137 13.4106L3.12229 12.9017ZM6.80241 13.7067L6.34889 13.1094L6.34888 13.1094L6.80241 13.7067ZM9.19725 13.7067L9.65078 13.1094L9.65078 13.1094L9.19725 13.7067ZM9.93433 14.7692L9.21753 14.9899C9.27613 15.1803 9.40808 15.3395 9.58425 15.4325C9.76043 15.5255 9.96636 15.5446 10.1566 15.4855L9.93433 14.7692ZM12.878 12.9024L13.4288 13.4114C13.6818 13.1377 13.6954 12.7198 13.4608 12.4302L12.878 12.9024ZM12.4118 11.7682L11.6658 11.8458L11.6658 11.8458L12.4118 11.7682ZM12.6338 10.5564L13.303 10.8951L13.303 10.8951L12.6338 10.5564ZM13.4685 9.68021L13.8348 10.3347L13.8348 10.3347L13.4685 9.68021ZM14.6311 9.43836L14.5541 10.1844C14.9398 10.2242 15.2922 9.96353 15.367 9.5831L14.6311 9.43836ZM14.4585 5.90674L15.1767 5.69059C15.0801 5.36969 14.7824 5.15181 14.4473 5.15682L14.4585 5.90674ZM13.4622 5.65196L13.094 6.30535L13.094 6.30535L13.4622 5.65196ZM12.608 2.86032L13.2858 3.18142C13.4233 2.89104 13.3606 2.54528 13.1299 2.32168L12.608 2.86032ZM9.80979 1.23077L10.0179 0.510218C9.66793 0.409161 9.29597 0.574144 9.13599 0.901375L9.80979 1.23077ZM6.18988 1.23077L6.86367 0.901375C6.70367 0.574102 6.33164 0.409124 5.98167 0.510252L6.18988 1.23077ZM3.39169 2.86102L2.86968 2.3225C2.63909 2.54601 2.5764 2.89152 2.71375 3.1818L3.39169 2.86102ZM3.59797 3.89894L2.84883 3.86317L2.84883 3.86317L3.59797 3.89894ZM3.29381 4.91048L3.93742 5.29553L3.93742 5.29553L3.29381 4.91048ZM2.55575 5.64103L2.18053 4.99164L2.18053 4.99164L2.55575 5.64103ZM1.56955 5.90674L1.56967 5.15674H1.56955V5.90674ZM1.54044 5.90674V5.15674C1.20936 5.15674 0.917452 5.37382 0.822171 5.6909L1.54044 5.90674ZM1.36919 9.43765L0.633339 9.58263C0.70827 9.96295 1.06066 10.2235 1.44624 10.1837L1.36919 9.43765ZM2.53189 9.67951L2.16555 10.334L2.16555 10.334L2.53189 9.67951ZM3.36654 10.5557L2.69736 10.8944L2.69736 10.8944L3.36654 10.5557ZM8.70645 6.2944L8.41944 6.98731L8.41944 6.98731L8.70645 6.2944ZM9.30539 6.6946L8.77506 7.22493L8.77506 7.22493L9.30539 6.6946ZM9.70559 7.29353L9.01268 7.58054L9.01268 7.58054L9.70559 7.29353ZM9.30539 9.30545L8.77506 8.77512L8.77506 8.77512L9.30539 9.30545ZM6.28781 14.053C5.29638 13.745 4.39509 13.1742 3.67321 12.3928L2.57137 13.4106C3.46867 14.382 4.59521 15.0979 5.84286 15.4855L6.28781 14.053ZM6.34888 13.1094C5.87324 13.4705 5.52489 13.9756 5.34853 14.5486L6.78214 14.9899C6.86834 14.7099 7.03619 14.4709 7.25593 14.3041L6.34888 13.1094ZM7.99983 12.5505C7.40312 12.5505 6.82502 12.7479 6.34889 13.1094L7.25593 14.3041C7.47518 14.1376 7.73569 14.0505 7.99983 14.0505V12.5505ZM9.65078 13.1094C9.17464 12.7479 8.59655 12.5505 7.99983 12.5505V14.0505C8.26397 14.0505 8.52448 14.1376 8.74373 14.3041L9.65078 13.1094ZM10.6511 14.5486C10.4748 13.9756 10.1264 13.4705 9.65078 13.1094L8.74373 14.3041C8.96347 14.4709 9.13133 14.7099 9.21753 14.9899L10.6511 14.5486ZM12.3273 12.3933C11.6051 13.1746 10.7036 13.7452 9.71205 14.0529L10.1566 15.4855C11.4044 15.0983 12.5312 14.3826 13.4288 13.4114L12.3273 12.3933ZM11.6658 11.8458C11.7241 12.4059 11.9419 12.9384 12.2953 13.3746L13.4608 12.4302C13.2933 12.2236 13.1864 11.9663 13.1577 11.6905L11.6658 11.8458ZM11.9646 10.2177C11.7108 10.7193 11.6075 11.2859 11.6658 11.8458L13.1577 11.6905C13.129 11.4147 13.1803 11.1374 13.303 10.8951L11.9646 10.2177ZM13.1021 9.02576C12.6132 9.29946 12.2186 9.71592 11.9646 10.2177L13.303 10.8951C13.4255 10.653 13.6121 10.4593 13.8348 10.3347L13.1021 9.02576ZM14.7082 8.69232C14.151 8.63478 13.5915 8.75184 13.1021 9.02577L13.8348 10.3347C14.057 10.2103 14.3072 10.1589 14.5541 10.1844L14.7082 8.69232ZM13.7404 6.12289C14.0491 7.14862 14.1025 8.2399 13.8952 9.29361L15.367 9.5831C15.6214 8.28997 15.556 6.95089 15.1767 5.69059L13.7404 6.12289ZM13.094 6.30535C13.5143 6.54216 13.9881 6.66386 14.4698 6.65665L14.4473 5.15682C14.2338 5.16001 14.0215 5.10625 13.8304 4.99856L13.094 6.30535ZM12.0718 5.31236C12.323 5.72578 12.674 6.06867 13.094 6.30535L13.8304 4.99856C13.6391 4.89075 13.4741 4.73163 13.3538 4.5336L12.0718 5.31236ZM11.6525 3.94396C11.6772 4.42795 11.8208 4.8991 12.0718 5.31236L13.3538 4.5336C13.2334 4.33541 13.1627 4.10614 13.1506 3.86782L11.6525 3.94396ZM11.9302 2.53922C11.723 2.97648 11.6279 3.45999 11.6525 3.94396L13.1506 3.86782C13.1385 3.62947 13.1855 3.39296 13.2858 3.18142L11.9302 2.53922ZM9.6017 1.95133C10.5267 2.21846 11.3792 2.71405 12.0861 3.39896L13.1299 2.32168C12.2496 1.46882 11.1826 0.846575 10.0179 0.510218L9.6017 1.95133ZM9.46487 2.70619C9.90309 2.42658 10.2545 2.02886 10.4836 1.56017L9.13599 0.901375C9.02535 1.12771 8.8587 1.31363 8.65803 1.44168L9.46487 2.70619ZM7.99983 3.13565C8.51921 3.13565 9.02635 2.986 9.46487 2.70619L8.65803 1.44168C8.45765 1.56953 8.22993 1.63565 7.99983 1.63565V3.13565ZM6.53479 2.70619C6.97331 2.986 7.48046 3.13565 7.99983 3.13565V1.63565C7.76973 1.63565 7.54201 1.56953 7.34164 1.44168L6.53479 2.70619ZM5.51608 1.56017C5.74521 2.02886 6.09657 2.42658 6.53479 2.70619L7.34164 1.44168C7.14096 1.31363 6.97432 1.12771 6.86367 0.901375L5.51608 1.56017ZM3.91369 3.39955C4.62051 2.71442 5.47299 2.21861 6.39808 1.9513L5.98167 0.510252C4.81686 0.846837 3.74983 1.46935 2.86968 2.3225L3.91369 3.39955ZM4.34712 3.93472C4.37007 3.45419 4.27507 2.97443 4.06962 2.54024L2.71375 3.1818C2.81314 3.39185 2.86013 3.62652 2.84883 3.86317L4.34712 3.93472ZM3.93742 5.29553C4.18388 4.88358 4.32417 4.41527 4.34712 3.93472L2.84883 3.86317C2.83753 4.0998 2.76846 4.32776 2.6502 4.52543L3.93742 5.29553ZM2.93096 6.29043C3.34537 6.05099 3.69087 5.70763 3.93742 5.29553L2.6502 4.52543C2.53203 4.72295 2.3695 4.88245 2.18053 4.99164L2.93096 6.29043ZM1.56943 6.65674C2.04763 6.65681 2.51633 6.53 2.93096 6.29043L2.18053 4.99164C1.99178 5.1007 1.78165 5.15677 1.56967 5.15674L1.56943 6.65674ZM1.54044 6.65674H1.56955V5.15674H1.54044V6.65674ZM2.10505 9.29267C1.8975 8.23927 1.9505 7.14822 2.25871 6.12258L0.822171 5.6909C0.443481 6.95108 0.378635 8.28988 0.633339 9.58263L2.10505 9.29267ZM2.89822 9.02506C2.40886 8.75113 1.84935 8.63408 1.29215 8.69162L1.44624 10.1837C1.69316 10.1582 1.9433 10.2095 2.16555 10.334L2.89822 9.02506ZM4.03572 10.217C3.78176 9.71522 3.38717 9.29876 2.89822 9.02506L2.16555 10.334C2.38821 10.4586 2.57484 10.6523 2.69736 10.8944L4.03572 10.217ZM4.33455 11.8451C4.39285 11.2852 4.28955 10.7186 4.03572 10.217L2.69736 10.8944C2.82001 11.1367 2.87133 11.414 2.84261 11.6898L4.33455 11.8451ZM3.705 13.3738C4.05843 12.9377 4.27624 12.4052 4.33455 11.8451L2.84261 11.6898C2.8139 11.9656 2.707 12.2229 2.53958 12.4295L3.705 13.3738ZM7.99996 10.5962C8.34089 10.5962 8.67849 10.529 8.99347 10.3986L8.41944 9.01274C8.28645 9.06782 8.14391 9.09618 7.99996 9.09618V10.5962ZM6.1642 9.83578C6.65108 10.3227 7.31142 10.5962 7.99996 10.5962V9.09618C7.70924 9.09618 7.43043 8.98069 7.22486 8.77512L6.1642 9.83578ZM5.40381 8.00002C5.40381 8.68857 5.67733 9.34891 6.1642 9.83578L7.22486 8.77512C7.0193 8.56955 6.90381 8.29074 6.90381 8.00002H5.40381ZM6.1642 6.16427C5.67733 6.65114 5.40381 7.31148 5.40381 8.00002H6.90381C6.90381 7.70931 7.0193 7.43049 7.22486 7.22493L6.1642 6.16427ZM7.99996 5.40387C7.31142 5.40387 6.65108 5.67739 6.1642 6.16427L7.22486 7.22493C7.43043 7.01936 7.70924 6.90387 7.99996 6.90387V5.40387ZM8.99347 5.60149C8.67849 5.47102 8.34089 5.40387 7.99996 5.40387V6.90387C8.14391 6.90387 8.28645 6.93222 8.41944 6.98731L8.99347 5.60149ZM9.83572 6.16427C9.59465 5.92319 9.30845 5.73196 8.99347 5.60149L8.41944 6.98731C8.55243 7.0424 8.67327 7.12314 8.77506 7.22493L9.83572 6.16427ZM10.3985 7.00652C10.268 6.69154 10.0768 6.40534 9.83572 6.16426L8.77506 7.22493C8.87685 7.32671 8.95759 7.44755 9.01268 7.58054L10.3985 7.00652ZM10.5961 8.00002C10.5961 7.65909 10.529 7.3215 10.3985 7.00652L9.01268 7.58054C9.06776 7.71353 9.09612 7.85607 9.09612 8.00002H10.5961ZM10.3985 8.99353C10.529 8.67855 10.5961 8.34095 10.5961 8.00002H9.09612C9.09612 8.14397 9.06776 8.28651 9.01268 8.4195L10.3985 8.99353ZM9.83572 9.83578C10.0768 9.59471 10.268 9.30851 10.3985 8.99353L9.01268 8.4195C8.95759 8.5525 8.87685 8.67333 8.77506 8.77512L9.83572 9.83578ZM8.99347 10.3986C9.30845 10.2681 9.59464 10.0769 9.83572 9.83578L8.77506 8.77512C8.67327 8.87691 8.55243 8.95765 8.41944 9.01274L8.99347 10.3986Z" fill="#FE6730"/>
</g>
<defs>
<clipPath id="clip0_276_204">
<rect width="16" height="16" fill="white"/>
</clipPath>
</defs>
</svg>
