<svg width="16" height="16" viewBox="0 0 16 16" fill="none" xmlns="http://www.w3.org/2000/svg">
<g clip-path="url(#clip0_422_2)">
<path d="M8.00007 10.963C8.7859 10.963 9.53954 10.6508 10.0952 10.0951C10.6509 9.53947 10.963 8.78583 10.963 8C10.963 7.21417 10.6509 6.46053 10.0952 5.90487C9.53954 5.34921 8.7859 5.03704 8.00007 5.03704C7.21425 5.03704 6.4606 5.34921 5.90494 5.90487C5.34928 6.46053 5.03711 7.21417 5.03711 8C5.03711 8.78583 5.34928 9.53947 5.90494 10.0951C6.4606 10.6508 7.21425 10.963 8.00007 10.963Z" stroke="black" stroke-width="1.5" stroke-linecap="round" stroke-linejoin="round"/>
<path d="M10.9636 8.00296V9.11407C10.9636 9.60522 11.1587 10.0762 11.506 10.4235C11.8533 10.7708 12.3243 10.9659 12.8155 10.9659C13.3066 10.9659 13.7776 10.7708 14.1249 10.4235C14.4722 10.0762 14.6673 9.60522 14.6673 9.11407V8.00296C14.6692 6.57045 14.2095 5.17544 13.3565 4.02459C12.5035 2.87374 11.3024 2.02826 9.93131 1.61341C8.56018 1.19855 7.09188 1.23639 5.74394 1.72131C4.39599 2.20622 3.24009 3.11243 2.44747 4.30569C1.65485 5.49894 1.26767 6.91577 1.34328 8.34629C1.4189 9.77681 1.95328 11.1449 2.86728 12.248C3.78128 13.351 5.02627 14.1303 6.41783 14.4704C7.80939 14.8106 9.27349 14.6934 10.5932 14.1363" stroke="black" stroke-width="1.5" stroke-linecap="round" stroke-linejoin="round"/>
</g>
<defs>
<clipPath id="clip0_422_2">
<rect width="16" height="16" fill="white"/>
</clipPath>
</defs>
</svg>
