<svg width="12" height="12" viewBox="0 0 12 12" fill="none" xmlns="http://www.w3.org/2000/svg">
<g clip-path="url(#clip0_1_261)">
<path d="M5.90951 1.04998C5.94551 0.973309 6.05456 0.973309 6.09056 1.04998L7.56653 4.19421C7.58068 4.22436 7.60893 4.24549 7.64186 4.25055L10.9507 4.7591C11.0311 4.77146 11.0639 4.86958 11.007 4.9278L8.60674 7.38614C8.58455 7.40886 8.57448 7.44076 8.57959 7.4721L9.14516 10.9396C9.1586 11.022 9.07113 11.0836 8.99808 11.0432L6.04843 9.41207C6.01831 9.39542 5.98176 9.39542 5.95164 9.41207L3.00199 11.0432C2.92894 11.0836 2.84147 11.022 2.85491 10.9396L3.42048 7.4721C3.42559 7.44076 3.41551 7.40886 3.39333 7.38614L0.993047 4.9278C0.936202 4.86958 0.968982 4.77146 1.04941 4.7591L4.35821 4.25055C4.39114 4.24549 4.41938 4.22436 4.43354 4.19421L5.90951 1.04998Z" stroke="black" stroke-linecap="round" stroke-linejoin="round"/>
</g>
<defs>
<clipPath id="clip0_1_261">
<rect width="12" height="12" fill="white"/>
</clipPath>
</defs>
</svg>
